<?xml version="1.0" encoding="UTF-8"?>
<svg version="1.1" xmlns="http://www.w3.org/2000/svg" width="463" height="231">
<path d="M0 0 C0.8353125 0.79664062 1.670625 1.59328125 2.53125 2.4140625 C7.48766655 7.48798753 7.48766655 7.48798753 13.8125 10.25 C19.41640938 9.8104777 22.79040944 6.43358323 26.75 2.6875 C38.26569841 -7.806095 49.19034391 -13.12779168 65 -13 C76.34132453 -12.227475 87.37789421 -6.3382768 95 2 C103.03796991 11.97880091 105.88171448 23.32943638 105 36 C103.16401949 48.07390575 97.71889339 58.42641418 88 66 C76.38673395 73.04308588 65.15730634 75.96327565 51.625 73.34765625 C39.94115594 70.13735476 32.17517855 63.47962813 23.640625 55.13671875 C20.67833825 52.73972045 18.76491749 51.62906285 15 51 C9.25642341 52.66583017 5.93452454 55.62142009 1.8125 59.8125 C-7.6146523 68.9366122 -18.07855133 73.87322206 -31.1875 74.375 C-43.74457082 74.127928 -53.9078839 69.6757492 -62.99609375 61.12109375 C-71.4799278 52.08991557 -75.59941797 40.77472319 -75.25 28.4140625 C-74.04261057 16.75520833 -69.5845062 6.11626041 -61 -2 C-42.01313036 -17.18949571 -18.03215931 -16.06386023 0 0 Z M-47 20 C-50.22500188 24.89310631 -50.86925701 29.29187896 -50 35 C-47.97411112 41.17569353 -44.78302713 44.77706739 -39.171875 48.07421875 C-34.34868518 50.13014678 -28.4840501 49.99691563 -23.64453125 48.0546875 C-18.0161591 44.69667185 -13.83419436 40.41968026 -12 34 C-11.33114325 28.09176536 -12.52935614 23.74930212 -16 19 C-21.53410945 13.85561657 -26.16651621 11.67493703 -33.72265625 11.78515625 C-39.54681236 12.33460494 -43.31426942 15.71658338 -47 20 Z M44.25 22.3125 C41.91478017 27.33322264 41.37197015 31.86907647 43 37.125 C45.40875917 42.76393851 50.38782078 46.71355661 56 49 C63.10194903 49.9353256 68.28197042 49.34570248 74 45 C78.31563264 40.69560599 80.15103053 36.96898684 80.4375 30.875 C80.36215032 24.55399898 78.38630003 20.50788191 74 16 C69.43430159 12.45847293 64.82564074 11.38463192 59.1015625 11.6796875 C52.36678807 12.70617728 48.20296137 17.0889439 44.25 22.3125 Z " fill="#19FB80" transform="translate(221,114)"/>
<path d="M0 0 C2.18600104 1.67085041 4.30873619 3.38219902 6.39453125 5.17578125 C6.50539063 4.39847656 6.61625 3.62117188 6.73046875 2.8203125 C7.39453125 0.17578125 7.39453125 0.17578125 10.01953125 -2.13671875 C13.95197136 -4.10293881 16.05327312 -4.44439848 20.39453125 -3.82421875 C24.38141927 -1.71793829 26.87210961 -0.08739872 28.39453125 4.17578125 C28.59052847 6.97504832 28.67802298 9.67439916 28.66918945 12.47338867 C28.67430038 13.30807678 28.67941132 14.14276489 28.68467712 15.00274658 C28.69857639 17.76232071 28.69761539 20.52164501 28.6953125 23.28125 C28.69920068 25.20453484 28.7035356 27.12781881 28.70829773 29.05110168 C28.71576171 33.08528422 28.71546841 37.11937926 28.71020508 41.15356445 C28.70442555 46.30707431 28.72130383 51.460223 28.74454975 56.61367321 C28.7593338 60.58840508 28.76015218 64.56305106 28.75704002 68.53780556 C28.7575514 70.43668645 28.76275437 72.33557238 28.77285194 74.2344265 C28.7852828 76.90025104 28.77838403 79.56538643 28.7668457 82.23120117 C28.77448944 83.00607376 28.78213318 83.78094635 28.79000854 84.57929993 C28.72905078 90.99828873 27.60976148 97.3997919 23.52734375 102.515625 C14.52711788 109.67728333 6.53497123 110.32625992 -4.66796875 110.37890625 C-5.61808838 110.38460632 -6.56820801 110.3903064 -7.54711914 110.3961792 C-9.5473521 110.40558481 -11.54760024 110.41214542 -13.54785156 110.41601562 C-16.59597763 110.42575094 -19.64343718 110.45682849 -22.69140625 110.48828125 C-24.64192311 110.49480967 -26.59244475 110.50006078 -28.54296875 110.50390625 C-29.89950562 110.52242645 -29.89950562 110.52242645 -31.28344727 110.5413208 C-36.82784892 110.52192295 -40.70267261 109.82399522 -45.60546875 107.17578125 C-48.66278821 103.72396895 -49.0796066 100.56410223 -48.89453125 96.10546875 C-48.46201978 93.21816244 -47.4495775 91.41505616 -45.60546875 89.17578125 C-42.77397789 87.46448081 -40.63294621 86.91936419 -37.34350586 86.87280273 C-36.51261948 86.85616074 -35.68173309 86.83951874 -34.82566833 86.82237244 C-33.4927047 86.80975121 -33.4927047 86.80975121 -32.1328125 86.796875 C-31.21335342 86.77988052 -30.29389435 86.76288605 -29.34657288 86.74537659 C-26.41210776 86.69229953 -23.47765602 86.65197461 -20.54296875 86.61328125 C-17.60478287 86.56932735 -14.66670539 86.52260558 -11.72865295 86.47047424 C-9.90129238 86.43856714 -8.07383625 86.41166152 -6.24632263 86.39024353 C-5.41858841 86.37675369 -4.59085419 86.36326385 -3.73803711 86.34936523 C-2.64693886 86.33509743 -2.64693886 86.33509743 -1.53379822 86.32054138 C0.6143451 86.23824464 0.6143451 86.23824464 3.39453125 85.17578125 C4.89609999 82.17264377 4.48734329 79.38510603 4.45703125 76.05078125 C4.44800781 74.76945312 4.43898437 73.488125 4.4296875 72.16796875 C4.41808594 71.18054688 4.40648437 70.193125 4.39453125 69.17578125 C3.89824219 69.64628906 3.40195312 70.11679688 2.890625 70.6015625 C-4.86110463 77.7060889 -12.14871247 80.59516305 -22.72265625 80.453125 C-33.85732417 79.38190356 -42.3960363 74.92656499 -49.85546875 66.80078125 C-59.55494354 54.83458138 -59.67631515 40.90973069 -58.60546875 26.17578125 C-56.99004622 16.44234932 -51.85799602 7.73914714 -44.40234375 1.26171875 C-42.1989081 -0.3022583 -40.01263919 -1.59981025 -37.60546875 -2.82421875 C-36.94289063 -3.16195312 -36.2803125 -3.4996875 -35.59765625 -3.84765625 C-24.15071986 -8.5918238 -10.00914027 -7.00789881 0 0 Z M-30.54296875 21.23828125 C-35.22226267 26.49280752 -36.99017978 32.8278938 -36.60546875 39.80078125 C-35.61706808 45.87085058 -32.50022898 50.37575903 -28.10546875 54.55078125 C-22.35793793 58.28667629 -17.37692984 58.95167783 -10.60546875 58.17578125 C-4.79722244 56.78887628 -1.45544289 54.5039573 1.89453125 49.55078125 C5.64596921 43.27754332 6.03918669 38.5064345 5.39453125 31.17578125 C3.93531632 25.86634862 0.82518814 21.74523054 -3.49609375 18.375 C-12.43132508 13.29515552 -22.90916565 14.48468606 -30.54296875 21.23828125 Z " fill="#19FB80" transform="translate(58.60546875,107.82421875)"/>
<path d="M0 0 C2.375 2.4375 2.375 2.4375 3.5625 5.875 C3.375 9.4375 3.375 9.4375 1.328125 12.0625 C-2.21056595 14.90843134 -4.59885758 15.35719953 -9.0625 16 C-15.89832638 17.00019659 -19.9551545 18.84484391 -24.921875 23.66796875 C-27.17580305 27.3331866 -27.51224632 30.52165241 -27.875 34.75 C-27.95234375 35.49056641 -28.0296875 36.23113281 -28.109375 36.99414062 C-28.29651741 38.80708268 -28.46287704 40.62214954 -28.625 42.4375 C-28.01503174 42.42178955 -27.40506348 42.4060791 -26.77661133 42.38989258 C-23.9970029 42.32730187 -21.21754308 42.28843378 -18.4375 42.25 C-17.47779297 42.22486328 -16.51808594 42.19972656 -15.52929688 42.17382812 C-6.55083557 42.0806261 -6.55083557 42.0806261 -2.625 45.4375 C-1.18069145 48.32611709 -1.24811494 50.23397701 -1.625 53.4375 C-3.44140625 56.1171875 -3.44140625 56.1171875 -6.625 58.4375 C-10.41447856 59.05050388 -14.11155762 58.90910829 -17.9375 58.75 C-18.96423828 58.72744141 -19.99097656 58.70488281 -21.04882812 58.68164062 C-23.5757179 58.62287575 -26.09960255 58.54077849 -28.625 58.4375 C-28.60834541 59.4389505 -28.60834541 59.4389505 -28.59135437 60.46063232 C-28.48081987 67.40330643 -28.40535678 74.34573103 -28.3503418 81.2890625 C-28.32518245 83.88096263 -28.29105149 86.47279172 -28.24780273 89.06445312 C-28.18721769 92.78793861 -28.15880354 96.51048695 -28.13671875 100.234375 C-28.11091232 101.39491394 -28.0851059 102.55545288 -28.05851746 103.75115967 C-28.05571099 111.78303716 -28.05571099 111.78303716 -30.99926758 115.16699219 C-33.77951581 116.51226525 -35.54948637 116.97594392 -38.625 116.9375 C-39.45 116.9478125 -40.275 116.958125 -41.125 116.96875 C-44.81062432 116.18555483 -46.11382094 115.32438759 -48.625 112.4375 C-49.34957481 108.37401364 -49.20479998 104.35005717 -49.11328125 100.234375 C-49.10620651 99.04144836 -49.09913177 97.84852173 -49.09184265 96.6194458 C-49.06384739 92.80816016 -49.00109402 88.99834186 -48.9375 85.1875 C-48.91242401 82.60418788 -48.88960963 80.02085274 -48.86914062 77.4375 C-48.81400356 71.10366576 -48.73032385 64.7706877 -48.625 58.4375 C-49.57761719 58.48390625 -50.53023438 58.5303125 -51.51171875 58.578125 C-52.76597656 58.61421875 -54.02023437 58.6503125 -55.3125 58.6875 C-56.55386719 58.73390625 -57.79523438 58.7803125 -59.07421875 58.828125 C-63.18994302 58.37535005 -64.74869759 57.34816442 -67.625 54.4375 C-68.2890625 52.4375 -68.2890625 52.4375 -68.25 50.4375 C-68.26289063 49.7775 -68.27578125 49.1175 -68.2890625 48.4375 C-67.2225857 45.22552281 -65.47903219 44.16443782 -62.625 42.4375 C-59.07421875 42.046875 -59.07421875 42.046875 -55.3125 42.1875 C-54.05824219 42.22359375 -52.80398438 42.2596875 -51.51171875 42.296875 C-50.55910156 42.34328125 -49.60648437 42.3896875 -48.625 42.4375 C-48.67720703 40.62765625 -48.67720703 40.62765625 -48.73046875 38.78125 C-48.75862984 37.16668072 -48.78592749 35.55209621 -48.8125 33.9375 C-48.83763672 33.14601562 -48.86277344 32.35453125 -48.88867188 31.5390625 C-48.98769166 23.48545312 -46.95891841 17.09320242 -41.4140625 11.09765625 C-31.11524996 1.54089789 -13.73164194 -5.91881118 0 0 Z " fill="#19FB80" transform="translate(402.625,70.5625)"/>
<path d="M0 0 C3.41311667 2.52570633 4.66637768 3.99913304 6 8 C6.11996454 10.69147956 6.18531849 13.3590364 6.20532227 16.05151367 C6.21522186 16.87125168 6.22512146 17.69098969 6.23532104 18.53556824 C6.26692009 21.24633898 6.2916872 23.95712725 6.31640625 26.66796875 C6.33697715 28.54698646 6.35797366 30.42599955 6.37937927 32.30500793 C6.43458586 37.2517015 6.4840014 42.19843674 6.53222656 47.14520264 C6.58245187 52.19254262 6.63813257 57.23982207 6.69335938 62.28710938 C6.80092368 72.19135454 6.90237253 82.09565225 7 92 C7.68634521 92.19335938 8.37269043 92.38671875 9.07983398 92.5859375 C9.98032471 92.84632813 10.88081543 93.10671875 11.80859375 93.375 C13.14748657 93.75785156 13.14748657 93.75785156 14.51342773 94.1484375 C17.63291299 95.21675017 19.71008558 96.63621737 22 99 C23.52199443 103.56598329 23.74716734 107.39892714 21.6875 111.8125 C20 114 20 114 17 116 C14.05920558 116.2501566 11.25350581 116.37024494 8.3125 116.375 C7.53455078 116.39949219 6.75660156 116.42398438 5.95507812 116.44921875 C-0.78478654 116.48294618 -5.85897326 114.65592608 -11.0234375 110.2890625 C-11.46945313 109.73992187 -11.91546875 109.19078125 -12.375 108.625 C-12.83648437 108.08101563 -13.29796875 107.53703125 -13.7734375 106.9765625 C-17.14871259 101.53742494 -17.29729186 96.15783288 -17.29052734 89.96875 C-17.29724457 89.08018311 -17.30396179 88.19161621 -17.31088257 87.27612305 C-17.32981822 84.35069122 -17.33378409 81.42548922 -17.3359375 78.5 C-17.34236696 76.46028551 -17.34909543 74.42057194 -17.35610962 72.38085938 C-17.36807017 68.11065532 -17.37179154 63.84053212 -17.37060547 59.5703125 C-17.370402 54.10261023 -17.39773901 48.63542606 -17.43214989 43.16784668 C-17.45439787 38.95733259 -17.4584437 34.7469438 -17.45738602 30.53637695 C-17.45974379 28.52057098 -17.46857725 26.50476164 -17.48405075 24.48901367 C-17.50367421 21.66939013 -17.49788768 18.85089215 -17.48583984 16.03125 C-17.49707886 15.20197998 -17.50831787 14.37270996 -17.51989746 13.51831055 C-17.46252934 8.2274958 -16.51812464 5.19569052 -13 1 C-9.04352612 -0.97823694 -4.3017582 -0.56487734 0 0 Z " fill="#19FB80" transform="translate(119,69)"/>
<path d="M0 0 C3.55680172 2.10504591 4.69468936 3.08406808 6 7 C6.10894908 9.01272833 6.15892185 11.0288398 6.17700195 13.04443359 C6.18983719 14.28937592 6.20267242 15.53431824 6.21589661 16.81698608 C6.22406365 18.17746584 6.23150745 19.5379501 6.23828125 20.8984375 C6.24235678 21.58449696 6.2464323 22.27055641 6.25063133 22.97740555 C6.27146949 26.6076553 6.28578176 30.23786749 6.29516602 33.86816406 C6.30623526 37.61312366 6.34064653 41.35748986 6.38033772 45.10223961 C6.40650551 47.9864918 6.41485785 50.87060247 6.41844749 53.75496292 C6.42331189 55.13525024 6.43492192 56.5155313 6.45348549 57.89570236 C6.47787886 59.82924796 6.47449192 61.76308316 6.4699707 63.69677734 C6.47877007 65.34533218 6.47877007 65.34533218 6.48774719 67.02719116 C5.88578776 70.69612121 4.55784522 72.35314916 2 75 C-0.5360528 76.2680264 -2.48011164 76.27534899 -5.3125 76.375 C-6.25738281 76.42398438 -7.20226562 76.47296875 -8.17578125 76.5234375 C-12.14138275 75.78845742 -13.46701494 74.08454073 -16 71 C-16.62818909 67.92002869 -16.62818909 67.92002869 -16.63110352 64.43725586 C-16.64363663 63.12917465 -16.65616974 61.82109344 -16.66908264 60.47337341 C-16.65681526 59.05385336 -16.64339538 57.63434286 -16.62890625 56.21484375 C-16.62973539 54.75183435 -16.63219646 53.28882504 -16.63621521 51.82582092 C-16.63906919 48.76502321 -16.62441092 45.70495891 -16.59692383 42.64428711 C-16.56281009 38.72426261 -16.56887226 34.80554644 -16.5875864 30.88545895 C-16.59816181 27.86647158 -16.58921446 24.84778794 -16.57420158 21.82882881 C-16.56902522 20.38356999 -16.56949499 18.93827939 -16.57574654 17.49302483 C-16.58120534 15.47309125 -16.55795902 13.45314183 -16.53344727 11.43334961 C-16.52724869 10.28483017 -16.52105011 9.13631073 -16.5146637 7.95298767 C-15.89119405 4.37570372 -14.80522239 3.22686104 -12 1 C-8.30009772 -0.84995114 -4.03832859 -0.46986842 0 0 Z " fill="#19FB80" transform="translate(434,110)"/>
<path d="M0 0 C2.5625 2.375 2.5625 2.375 3.625 5.3125 C3.55026073 8.97472445 2.84865127 10.53701911 0.5625 13.375 C-3.64531237 15.92112851 -7.63944863 16.17881862 -12.4375 15.375 C-15.28281629 14.02477862 -16.31666588 12.87649666 -18.4375 10.375 C-19.26000286 6.42698625 -18.80787221 4.9497155 -16.625 1.5625 C-11.93830807 -3.12419193 -5.61352156 -2.65366474 0 0 Z " fill="#19FB80" transform="translate(436.4375,81.625)"/>
</svg>
