<?xml version="1.0" encoding="UTF-8"?>
<svg version="1.1" xmlns="http://www.w3.org/2000/svg" width="306" height="69">
<path d="M0 0 C14.47525394 0.1717112 26.34188258 6.68409686 36.60546875 16.5390625 C38.18849082 18.99193629 38.21467666 20.44848328 37.75 23.3125 C35.50843913 25.97678698 32.84723172 27.74354585 29.75 29.3125 C25.20469306 28.97160198 22.19466158 25.0233499 18.94140625 22.06640625 C14.81933272 18.76727788 10.07610728 16.3125 4.75 16.3125 C2.11 23.5725 -0.53 30.8325 -3.25 38.3125 C0.05 38.3125 3.35 38.3125 6.75 38.3125 C7.41 36.0025 8.07 33.6925 8.75 31.3125 C10.4 30.9825 12.05 30.6525 13.75 30.3125 C19.09079567 35.94594201 23.40482362 40.65261883 24 48.6875 C23.75 51.3125 23.75 51.3125 22.75 52.3125 C21.36839885 52.4052833 19.98211962 52.42997043 18.59741211 52.42602539 C17.71657455 52.42594986 16.835737 52.42587433 15.9282074 52.42579651 C14.97092239 52.42063522 14.01363739 52.41547394 13.02734375 52.41015625 C12.05213272 52.4087413 11.07692169 52.40732635 10.07215881 52.40586853 C6.94390857 52.40025133 3.81572877 52.38769593 0.6875 52.375 C-1.42773334 52.36998722 -3.54296781 52.36542393 -5.65820312 52.36132812 C-10.85549296 52.35027631 -16.05274145 52.33352146 -21.25 52.3125 C-22.73522206 49.97567218 -23.34098585 48.82863976 -22.85185242 46.0539093 C-22.54842422 45.230858 -22.24499603 44.4078067 -21.93237305 43.55981445 C-21.59509689 42.62236893 -21.25782074 41.6849234 -20.9103241 40.71907043 C-20.53128433 39.714785 -20.15224457 38.71049957 -19.76171875 37.67578125 C-19.38392776 36.6405986 -19.00613678 35.60541595 -18.61689758 34.53886414 C-17.40457719 31.22884257 -16.17099003 27.92718308 -14.9375 24.625 C-14.11650805 22.38785761 -13.29682994 20.15023259 -12.47851562 17.91210938 C-10.97853368 13.83090649 -9.47767773 9.75010015 -7.95581055 5.67700195 C-7.64999557 4.85633743 -7.3441806 4.03567291 -7.02909851 3.19013977 C-5.52166306 -0.44280357 -3.75602557 0.09340901 0 0 Z " fill="#19FB80" transform="translate(75.25,11.6875)"/>
<path d="M0 0 C0.79719955 0.00222061 1.59439911 0.00444122 2.41575623 0.00672913 C3.31661453 0.00680466 4.21747284 0.00688019 5.14562988 0.00695801 C6.12478867 0.01211929 7.10394745 0.01728058 8.11277771 0.02259827 C9.11018478 0.02401321 10.10759186 0.02542816 11.13522339 0.02688599 C14.3348027 0.03250337 17.53431315 0.04505881 20.73387146 0.05775452 C22.89728191 0.06276728 25.06069345 0.06733057 27.22410583 0.07142639 C32.53988471 0.08247845 37.85562317 0.09923348 43.17137146 0.12025452 C44.34626006 3.53375298 44.00212575 5.41286739 42.75608826 8.76527405 C42.42211533 9.67947113 42.0881424 10.59366821 41.74404907 11.53556824 C41.37330765 12.51484283 41.00256622 13.49411743 40.62059021 14.50306702 C40.24658585 15.51368195 39.87258148 16.52429688 39.48724365 17.5655365 C38.6944874 19.70077086 37.8964295 21.83404322 37.0934906 23.96546936 C35.86267182 27.2351588 34.64952292 30.51099141 33.43894958 33.78822327 C32.66719772 35.8602235 31.89444501 37.93185128 31.12059021 40.00306702 C30.75592148 40.98639008 30.39125275 41.96971313 30.01553345 42.98283386 C29.67210403 43.89072662 29.32867462 44.79861938 28.97483826 45.73402405 C28.6742601 46.53470306 28.37368195 47.33538208 28.06399536 48.1603241 C27.17137146 50.12025452 27.17137146 50.12025452 25.17137146 52.12025452 C10.7930943 53.279793 -1.64144094 47.70543656 -12.51612854 38.62025452 C-15.52115793 36.04050923 -16.69942717 34.97406027 -17.29737854 31.02259827 C-16.82862854 28.12025452 -16.82862854 28.12025452 -15.47315979 26.40541077 C-14.86858948 26.0019342 -14.26401917 25.59845764 -13.64112854 25.18275452 C-12.75360901 24.55046936 -12.75360901 24.55046936 -11.84815979 23.90541077 C-9.08824765 22.83240817 -7.61676781 23.18797045 -4.82862854 24.12025452 C-2.87159729 25.60853577 -2.87159729 25.60853577 -1.01612854 27.43275452 C4.29237915 32.31057196 9.10780026 34.70754028 16.17137146 36.12025452 C18.81137146 28.86025452 21.45137146 21.60025452 24.17137146 14.12025452 C20.87137146 14.45025452 17.57137146 14.78025452 14.17137146 15.12025452 C13.18137146 17.43025452 12.19137146 19.74025452 11.17137146 22.12025452 C8.45462784 22.04035029 6.68501513 21.56198808 4.60887146 19.77650452 C0.17485587 14.89908737 -2.51596611 9.79403804 -3.07862854 3.18275452 C-2.7621426 0.57174553 -2.63612566 0.17335725 0 0 Z " fill="#19FB80" transform="translate(16.828628540039063,11.879745483398438)"/>
<path d="M0 0 C1.63102306 0.97152243 3.21727357 2.01724488 4.796875 3.0703125 C8.7766478 2.92291351 11.05651574 2.71062321 14.109375 0.0703125 C18.08633159 -2.8892831 21.91586904 -3.11301167 26.796875 -2.9296875 C32.69277504 -1.28656782 35.36907411 1.23106418 38.796875 6.0703125 C40.45713961 11.05110633 40.39590925 15.37304879 38.671875 20.2578125 C36.08223048 24.14227928 33.02373459 26.95688271 28.796875 29.0703125 C22.59800712 30.0286502 18.424622 29.17490338 13.046875 25.9453125 C9.02110588 23.40310429 9.02110588 23.40310429 4.359375 23.5078125 C2.04730902 24.91760883 -0.08317656 26.38897408 -2.203125 28.0703125 C-7.4095986 29.8058037 -12.35246589 29.73375633 -17.515625 27.8828125 C-21.94302854 24.89688918 -24.17253126 21.92749919 -25.640625 16.8203125 C-26.59585136 11.71155723 -25.66084258 7.62028779 -23.203125 3.0703125 C-16.31618088 -3.99786699 -8.44390786 -4.55971025 0 0 Z M-14.578125 8.6953125 C-16.48162299 11.01213129 -16.48162299 11.01213129 -16.265625 14.1328125 C-15.42158741 17.19624599 -15.42158741 17.19624599 -12.953125 19.0703125 C-10.24596224 20.33793943 -10.24596224 20.33793943 -7.515625 19.4453125 C-4.93533628 18.13628651 -4.93533628 18.13628651 -3.203125 15.0703125 C-3.28534209 11.99366223 -3.28534209 11.99366223 -4.203125 9.0703125 C-8.1994268 6.4061113 -10.5209667 5.91936208 -14.578125 8.6953125 Z M18.421875 9.5703125 C17.885625 10.3953125 17.349375 11.2203125 16.796875 12.0703125 C17.71509036 14.90147652 18.56345359 16.82079307 20.609375 19.0078125 C22.81159347 20.37059512 22.81159347 20.37059512 25.421875 19.3828125 C27.88967445 18.16209404 27.88967445 18.16209404 29.796875 16.0703125 C30.12703165 12.96683996 30.30218794 10.91250074 28.671875 8.1953125 C24.56653258 5.73210705 21.65588025 6.16609644 18.421875 9.5703125 Z " fill="#FFFFFF" transform="translate(217.203125,23.9296875)"/>
<path d="M0 0 C0.495 0.309375 0.99 0.61875 1.5 0.9375 C2.16 0.2775 2.82 -0.3825 3.5 -1.0625 C6.5625 -0.8125 6.5625 -0.8125 9.5 -0.0625 C11.73668641 4.41087281 10.7272266 10.5095803 10.74023438 15.4855957 C10.74991811 17.73101145 10.78092957 19.97550312 10.8125 22.22070312 C10.81903252 23.65364041 10.82428202 25.08658423 10.828125 26.51953125 C10.84214355 28.47209839 10.84214355 28.47209839 10.85644531 30.46411133 C10.47561274 34.1751422 9.76029511 36.00686253 7.5 38.9375 C3.22800275 41.78549817 -0.47798285 41.26768316 -5.5 41.25 C-6.87285156 41.27416992 -6.87285156 41.27416992 -8.2734375 41.29882812 C-9.15257812 41.29947266 -10.03171875 41.30011719 -10.9375 41.30078125 C-12.14212891 41.30525269 -12.14212891 41.30525269 -13.37109375 41.30981445 C-16.01370944 40.84765976 -16.93013748 40.08615345 -18.5 37.9375 C-18.07894737 33.51644737 -18.07894737 33.51644737 -16.5 31.9375 C-13.64122091 31.70048761 -10.80116703 31.51530818 -7.9375 31.375 C-7.13119141 31.33181641 -6.32488281 31.28863281 -5.49414062 31.24414062 C-3.49631195 31.13774738 -1.4981793 31.03709112 0.5 30.9375 C0.5 29.9475 0.5 28.9575 0.5 27.9375 C-0.06976563 28.25976562 -0.63953125 28.58203125 -1.2265625 28.9140625 C-4.94936794 30.5899646 -8.49694043 30.50043025 -12.5 29.9375 C-16.91547482 27.72976259 -19.5728317 25.50184598 -21.5 20.9375 C-22.79214812 15.21974457 -22.82265972 10.42742297 -20.5 4.9375 C-14.66824848 -2.15517077 -8.33818659 -3.5437293 0 0 Z M-12.5 9.9375 C-13.7622587 13.13522205 -13.70854002 14.43932107 -12.375 17.625 C-10.18185395 20.32988013 -8.89854 21.20924143 -5.5 21.9375 C-2.5120014 21.2426166 -1.02717392 20.60844862 0.875 18.1875 C1.74273921 15.06363883 1.4220483 13.03294787 0.5 9.9375 C-1.63450913 7.65052593 -2.91173624 7.02573956 -6 6.5625 C-9.05402595 7.02060389 -10.35660651 7.71755674 -12.5 9.9375 Z " fill="#FFFFFF" transform="translate(160.5,23.0625)"/>
<path d="M0 0 C0.33 1.65 0.66 3.3 1 5 C0.30132812 5.20753906 -0.39734375 5.41507813 -1.1171875 5.62890625 C-6.36632872 7.17397011 -6.36632872 7.17397011 -10.109375 10.82421875 C-10.7279391 12.9466284 -10.7279391 12.9466284 -11 16 C-8.03 16 -5.06 16 -2 16 C-1.34 17.32 -0.68 18.64 0 20 C-2 22 -2 22 -4.1640625 22.1953125 C-4.97617187 22.17210938 -5.78828125 22.14890625 -6.625 22.125 C-7.44226563 22.10695313 -8.25953125 22.08890625 -9.1015625 22.0703125 C-9.72804688 22.04710938 -10.35453125 22.02390625 -11 22 C-10.99214478 22.90093384 -10.99214478 22.90093384 -10.98413086 23.82006836 C-10.96341986 26.52586838 -10.95035875 29.23165177 -10.9375 31.9375 C-10.92912109 32.88302734 -10.92074219 33.82855469 -10.91210938 34.80273438 C-10.90727539 36.15141602 -10.90727539 36.15141602 -10.90234375 37.52734375 C-10.89448853 38.77632446 -10.89448853 38.77632446 -10.88647461 40.05053711 C-11 42 -11 42 -12 43 C-15 43.125 -15 43.125 -18 43 C-19 42 -19 42 -19.11352539 40.05053711 C-19.10567017 38.8015564 -19.10567017 38.8015564 -19.09765625 37.52734375 C-19.09443359 36.62822266 -19.09121094 35.72910156 -19.08789062 34.80273438 C-19.07951172 33.85720703 -19.07113281 32.91167969 -19.0625 31.9375 C-19.05798828 30.98810547 -19.05347656 30.03871094 -19.04882812 29.06054688 C-19.0370011 26.70696935 -19.02052025 24.35351523 -19 22 C-21.31 22 -23.62 22 -26 22 C-26.625 20.125 -26.625 20.125 -27 18 C-25 16 -25 16 -21.875 15.875 C-20.92625 15.91625 -19.9775 15.9575 -19 16 C-19.12375 14.1746875 -19.12375 14.1746875 -19.25 12.3125 C-19.23332647 9.16676001 -19.0195065 8.03511169 -17.4375 5.1875 C-12.02118166 0.32670149 -6.95627572 -0.36611977 0 0 Z " fill="#FFFFFF" transform="translate(287,10)"/>
<path d="M0 0 C4.875 0.875 4.875 0.875 6 2 C6.09761807 4.25618822 6.132059 6.51515471 6.140625 8.7734375 C6.15895306 10.16928715 6.17852338 11.56512094 6.19921875 12.9609375 C6.22820613 15.16889115 6.25000018 17.37582801 6.25048828 19.58398438 C6.25381998 21.71056025 6.28834599 23.83477158 6.328125 25.9609375 C6.34214355 27.87592041 6.34214355 27.87592041 6.35644531 29.82958984 C6.65835622 33.19340087 6.65835622 33.19340087 9.51855469 34.74462891 C10.33743164 35.15890137 11.15630859 35.57317383 12 36 C12.375 39.125 12.375 39.125 12 42 C10.43058802 43.56941198 8.85865006 43.2449847 6.6875 43.3125 C3.31829225 43.28036129 2.30470021 43.22090765 -0.5 41.1875 C-4.29521255 35.65281503 -3.22333648 28.76737788 -3.24023438 22.3215332 C-3.24995026 20.07400648 -3.28098987 17.82739074 -3.3125 15.58007812 C-3.3190296 14.14844292 -3.32428024 12.71680119 -3.328125 11.28515625 C-3.3374707 9.98457275 -3.34681641 8.68398926 -3.35644531 7.34399414 C-2.98478143 3.85722688 -2.38860573 2.49384628 0 0 Z " fill="#FFFFFF" transform="translate(178,9)"/>
<path d="M0 0 C2.6875 0.875 2.6875 0.875 5 2 C5.02886984 5.97915159 5.04675406 9.95827653 5.0625 13.9375 C5.07087891 15.07380859 5.07925781 16.21011719 5.08789062 17.38085938 C5.09111328 18.46044922 5.09433594 19.54003906 5.09765625 20.65234375 C5.10289307 21.65257568 5.10812988 22.65280762 5.11352539 23.68334961 C5 26 5 26 4 27 C1 27.125 1 27.125 -2 27 C-4.54413982 24.45586018 -3.23435466 17.4829618 -3.25 14.0625 C-3.270625 12.93908203 -3.29125 11.81566406 -3.3125 10.65820312 C-3.31765625 9.58634766 -3.3228125 8.51449219 -3.328125 7.41015625 C-3.3374707 6.42152588 -3.34681641 5.43289551 -3.35644531 4.41430664 C-3.23881836 3.61758545 -3.12119141 2.82086426 -3 2 C-2.01 1.34 -1.02 0.68 0 0 Z " fill="#FFFFFF" transform="translate(296,25)"/>
<path d="M0 0 C0.33 1.32 0.66 2.64 1 4 C-3.625 6.125 -3.625 6.125 -7 5 C-7 3.35 -7 1.7 -7 0 C-4.3333581 -1.33332095 -2.83319697 -0.67102033 0 0 Z " fill="#FFFFFF" transform="translate(300,16)"/>
</svg>
