<svg width="140" height="26" fill="none" xmlns="http://www.w3.org/2000/svg"><path d="M39.703 1.67c-2.107-.44-3.525-.448-3.688-.448l-1.328.005c-.52.003-.985.328-1.164.817L29.393 13.3l-3.927 10.706a1.246 1.246 0 0 0 1.17 1.674h19.483c.718 0 1.293-.607 1.181-1.317a13.92 13.92 0 0 0-4.82-8.494c-.618-.519-1.533-.215-1.806.545l-1.062 2.957h-5.725l2.39-6.516 1.855-5.06c.567.102 1.124.23 1.672.385 2.586.752 6.072 2.373 9.088 5.876.446.519 1.22.63 1.768.22l3.069-2.303c.547-.41.663-1.189.23-1.718A24.659 24.659 0 0 0 39.702 1.67ZM14.52 25.231c2.107.442 3.524.449 3.688.449l1.328-.006c.52-.002.985-.327 1.164-.816L24.83 13.6l3.926-10.705a1.246 1.246 0 0 0-1.17-1.674H8.104c-.718 0-1.292.607-1.18 1.317a13.92 13.92 0 0 0 4.82 8.494c.618.518 1.533.215 1.806-.545l1.062-2.957h5.724l-2.389 6.516-1.856 5.059a17.79 17.79 0 0 1-1.672-.384c-2.585-.752-6.072-2.374-9.087-5.876-.447-.519-1.22-.63-1.768-.22L.494 14.93c-.548.41-.663 1.189-.23 1.718a24.659 24.659 0 0 0 14.256 8.584Z" fill="#19FB80"/><path d="M77.933 7.976h-.14c-.864-1.255-2.453-2.203-4.46-2.203-3.93-.028-6.635 3.095-6.635 7.39 0 4.378 2.844 7.334 6.607 7.334 2.035-.028 3.624-.976 4.488-2.26h.14v2.4c0 .808-.502 1.254-1.31 1.254h-6.23a1.882 1.882 0 1 0 0 3.765h7.038c2.704 0 4.237-1.478 4.237-4.155V8.059A1.868 1.868 0 0 0 79.8 6.19h-.082c-.986 0-1.785.799-1.785 1.785Zm-3.708 8.951c-2.202 0-3.735-1.617-3.735-3.792 0-2.176 1.533-3.793 3.735-3.793 2.175 0 3.708 1.645 3.708 3.793 0 2.063-1.478 3.792-3.708 3.792ZM84.463 16.063c0 2.51 1.505 4.015 4.153 4.015h.766a1.827 1.827 0 0 0 0-3.653h-.04c-.698 0-1.116-.39-1.116-1.032V1.882a1.882 1.882 0 1 0-3.763 0v14.18ZM133.365 5.773c-1.979 0-3.596.948-4.46 2.203h-.139c0-.986-.799-1.785-1.785-1.785h-.083a1.868 1.868 0 0 0-1.868 1.868v15.729a1.868 1.868 0 0 0 3.736 0v-5.55h.139c.864 1.283 2.453 2.23 4.488 2.259 3.764 0 6.607-2.956 6.607-7.335 0-4.294-2.704-7.417-6.635-7.39Zm-.892 11.154c-2.23 0-3.707-1.729-3.707-3.792 0-2.148 1.533-3.793 3.707-3.793 2.203 0 3.736 1.617 3.736 3.793 0 2.175-1.533 3.792-3.736 3.792ZM115.68 5.704c-1.944 0-3.823.764-5.16 2.097l-.065.058a4.275 4.275 0 0 1-5.683.002 7.343 7.343 0 0 0-5.22-2.158c-4.084 0-7.405 3.325-7.405 7.413s3.322 7.414 7.405 7.414c1.944 0 3.823-.764 5.16-2.096l.063-.057a4.279 4.279 0 0 1 5.687-.002 7.38 7.38 0 0 0 5.218 2.145c4.084 0 7.405-3.32 7.405-7.402 0-4.082-3.321-7.414-7.405-7.414Zm3.346 7.414a3.345 3.345 0 0 1-3.346 3.334c-.908 0-1.743-.354-2.411-1.026-1.384-1.23-1.37-3.403.013-4.632l.035-.034a3.306 3.306 0 0 1 2.363-.977 3.344 3.344 0 0 1 3.346 3.335ZM101.95 15.44l-.035.034a3.311 3.311 0 0 1-2.361.977 3.344 3.344 0 0 1-3.347-3.335 3.344 3.344 0 0 1 5.758-2.307c1.383 1.228 1.368 3.403-.015 4.631Z" fill="#fff"/></svg>