<?xml version="1.0" encoding="UTF-8"?>
<svg version="1.1" xmlns="http://www.w3.org/2000/svg" width="232" height="69">
<path d="M0 0 C4.92229423 4.4809851 7.66837649 8.91811023 8.21899414 15.69555664 C8.34168424 18.92468827 8.37123381 22.14360856 8.375 25.375 C8.39949219 26.47328125 8.42398438 27.5715625 8.44921875 28.703125 C8.47409957 35.61999185 7.75914291 40.14336431 4 46 C-1.64248047 50.66117952 -7.23204991 52.41337768 -14.5 51.9375 C-20.44899547 51.34192366 -23.17407748 50.61072714 -27 46 C-31.50549306 38.90571534 -31.60809211 32.77805382 -31.5 24.5 C-31.51546875 23.31535156 -31.5309375 22.13070312 -31.546875 20.91015625 C-31.5152458 13.81730804 -30.89256983 8.98748014 -27 3 C-18.88758662 -3.70155888 -9.22055095 -5.29327925 0 0 Z " fill="#629766" transform="translate(41,14)"/>
<path d="M0 0 C2.875 1.6875 2.875 1.6875 5.375 3.4375 C8.73407116 5.11703558 10.31072588 4.77860432 13.875 3.6875 C15.9110882 2.40995446 17.91609119 1.08050182 19.875 -0.3125 C24.73801963 -1.93350654 28.6163586 -1.70311285 33.5 -0.1875 C38.24424521 2.44819178 41.11931493 5.4204448 42.875 10.6875 C43.24326224 16.30349916 43.09056007 19.86415989 39.875 24.6875 C35.02219388 29.47560204 31.46545971 31.11917083 24.73828125 31.12890625 C21.30309163 30.59933404 19.09533665 29.34632734 16.125 27.5625 C12.17186966 25.06698805 12.17186966 25.06698805 7.625 25.0625 C5.57927709 26.27133627 3.56252301 27.52946637 1.5625 28.8125 C-2.59068428 31.26581903 -6.41357609 31.39249409 -11.125 30.6875 C-16.77954659 28.66039839 -19.46649026 25.53065955 -22.4375 20.4375 C-23.78272378 15.05660488 -22.90595098 10.34311607 -20.5625 5.375 C-14.99790798 -0.76031941 -7.93369446 -3.33215167 0 0 Z M-13.125 12.6875 C-13.70850505 15.23040625 -13.70850505 15.23040625 -13.125 17.6875 C-11.68195903 19.70775736 -10.48840187 20.51791246 -8.25 21.5625 C-5.0145789 21.75281889 -3.57758681 20.74237003 -1.125 18.6875 C0.12177006 15.79043293 0.12177006 15.79043293 -0.125 12.6875 C-2.06279104 9.85534386 -3.25107351 8.8622853 -6.625 8.1875 C-9.9626027 8.85502054 -11.13100369 9.95498653 -13.125 12.6875 Z M21.375 10.8125 C19.56441862 13.62498494 19.56441862 13.62498494 20.25 16.875 C21.67708333 19.88541667 21.67708333 19.88541667 24.6875 21.3125 C27.93751506 21.99808138 27.93751506 21.99808138 30.75 20.1875 C33.12183233 17.83314874 33.12183233 17.83314874 33.375 14.625 C33.06935953 11.75408509 33.06935953 11.75408509 31.75 9.8125 C27.7668916 7.42263496 24.83364716 7.87264991 21.375 10.8125 Z " fill="#FFFFFF" transform="translate(140.125,24.3125)"/>
<path d="M0 0 C0.495 0.309375 0.99 0.61875 1.5 0.9375 C2.16 0.2775 2.82 -0.3825 3.5 -1.0625 C6.5625 -0.8125 6.5625 -0.8125 9.5 -0.0625 C11.68367148 4.30484296 10.68584904 10.20336187 10.68530273 15.05834961 C10.68748111 17.23115866 10.70561751 19.40345323 10.72460938 21.57617188 C10.72754508 22.96353994 10.72952869 24.3509104 10.73046875 25.73828125 C10.73457764 26.99809814 10.73868652 28.25791504 10.74291992 29.5559082 C10.43089455 33.89948947 9.78017824 36.80560495 6.4765625 39.7265625 C2.24468893 41.44819086 -1.60047289 41.3741981 -6.125 41.3125 C-6.98351562 41.32410156 -7.84203125 41.33570313 -8.7265625 41.34765625 C-9.5515625 41.34378906 -10.3765625 41.33992188 -11.2265625 41.3359375 C-11.97502441 41.33255371 -12.72348633 41.32916992 -13.49462891 41.32568359 C-16.04214683 40.83255558 -16.96604026 40.00308478 -18.5 37.9375 C-18.07894737 33.51644737 -18.07894737 33.51644737 -16.5 31.9375 C-13.64122091 31.70048761 -10.80116703 31.51530818 -7.9375 31.375 C-7.13119141 31.33181641 -6.32488281 31.28863281 -5.49414062 31.24414062 C-3.49631195 31.13774738 -1.4981793 31.03709112 0.5 30.9375 C0.83 29.6175 1.16 28.2975 1.5 26.9375 C0.860625 27.4325 0.22125 27.9275 -0.4375 28.4375 C-4.56473076 30.45900078 -7.98064366 30.65485815 -12.5 29.9375 C-16.91424884 27.73037558 -19.60831028 25.51738038 -21.5 20.9375 C-22.93496018 14.39675128 -22.87782462 9.76133555 -19.5 3.9375 C-14.14717625 -2.66431596 -7.52452083 -3.19792135 0 0 Z M-12.5 9.9375 C-13.67110449 12.7971006 -13.67110449 12.7971006 -13.5 15.9375 C-11.81194355 18.75092742 -10.489099 20.42699729 -7.5625 21.9375 C-4.51864785 21.9375 -2.91433115 20.71648085 -0.5 18.9375 C1.80260759 16.12151813 1.80260759 16.12151813 1.375 12.9375 C0.7356841 9.90789226 0.7356841 9.90789226 -1.25 8.0625 C-5.67104217 5.85197891 -9.10081944 6.29552083 -12.5 9.9375 Z " fill="#FFFFFF" transform="translate(86.5,25.0625)"/>
<path d="M0 0 C-0.34933594 0.47050781 -0.69867188 0.94101563 -1.05859375 1.42578125 C-1.51363281 2.04839844 -1.96867187 2.67101562 -2.4375 3.3125 C-2.88996094 3.92738281 -3.34242187 4.54226562 -3.80859375 5.17578125 C-7.20049785 10.36928687 -6.18425681 16.79550252 -6.1875 22.75 C-6.19974609 23.91789062 -6.21199219 25.08578125 -6.22460938 26.2890625 C-6.23473964 32.24565671 -6.07464267 37.39108464 -4 43 C-3.34 43 -2.68 43 -2 43 C-2.16081055 42.30704834 -2.32162109 41.61409668 -2.48730469 40.90014648 C-3.46946137 35.34441353 -3.22708919 29.6899686 -3.25 24.0625 C-3.270625 22.79986328 -3.29125 21.53722656 -3.3125 20.23632812 C-3.32023437 18.40424805 -3.32023437 18.40424805 -3.328125 16.53515625 C-3.34214355 14.87045288 -3.34214355 14.87045288 -3.35644531 13.17211914 C-2.84055322 8.58103286 -1.35383924 5.19456404 2.125 2.125 C6.17501002 0.54021347 9.70851247 0.32519012 14 1 C18.58568622 3.24958192 22.05888362 6.21569543 24 11 C24.56176961 15.19742919 24.51296246 19.33416784 24.4375 23.5625 C24.44458984 24.68591797 24.45167969 25.80933594 24.45898438 26.96679688 C24.38671492 36.32291228 24.38671492 36.32291228 21 41 C18.8125 42.3125 18.8125 42.3125 17 43 C17 44.65 17 46.3 17 48 C16.01 48 15.02 48 14 48 C14 45.03 14 42.06 14 39 C14.804375 38.690625 15.60875 38.38125 16.4375 38.0625 C18.89080405 37.23664655 18.89080405 37.23664655 20 36 C20.30972036 31.92450724 20.27848939 27.83580735 20.3125 23.75 C20.35600586 22.03103516 20.35600586 22.03103516 20.40039062 20.27734375 C20.52579168 13.71618196 20.52579168 13.71618196 18.10546875 7.765625 C14.48412019 4.72879838 11.7978316 4.66304691 7.1953125 4.71484375 C4.79789376 4.85392998 4.79789376 4.85392998 2.5 6.75 C-1.39673941 12.59510912 -0.22250548 20.10167254 -0.24023438 26.86376953 C-0.24999736 29.12438979 -0.28107132 31.38412191 -0.3125 33.64453125 C-0.31902514 35.07811961 -0.32427753 36.51171445 -0.328125 37.9453125 C-0.3374707 39.25000488 -0.34681641 40.55469727 -0.35644531 41.89892578 C-0.23881836 42.92228027 -0.12119141 43.94563477 0 45 C0.99 45.66 1.98 46.32 3 47 C3 40.4 3 33.8 3 27 C3.66 27 4.32 27 5 27 C5.33 33.93 5.66 40.86 6 48 C7.485 48.495 7.485 48.495 9 49 C9 42.07 9 35.14 9 28 C9.66 28 10.32 28 11 28 C11.02716824 30.54173977 11.04691969 33.08318415 11.0625 35.625 C11.07087891 36.33785156 11.07925781 37.05070312 11.08789062 37.78515625 C11.10710296 41.97344438 10.8267327 45.8728462 10 50 C0.3307102 50.77423139 0.3307102 50.77423139 -4.4375 48 C-11.15188521 40.13925634 -11.63115369 33.54418694 -11.5 23.5 C-11.51546875 22.31535156 -11.5309375 21.13070312 -11.546875 19.91015625 C-11.51134241 11.94197291 -10.81099974 5.81099974 -4.9375 -0.0625 C-3 -1 -3 -1 0 0 Z " fill="#083E0C" transform="translate(21,15)"/>
<path d="M0 0 C0.90105469 0.00902344 1.80210937 0.01804687 2.73046875 0.02734375 C3.41753906 0.03894531 4.10460937 0.05054688 4.8125 0.0625 C5.4375 1.9375 5.4375 1.9375 5.8125 4.0625 C3.24738754 6.62761246 1.15461929 6.78618132 -2.3125 7.5 C-4.40832328 7.96725673 -4.40832328 7.96725673 -6.1875 10.0625 C-6.83517793 12.63311311 -6.83517793 12.63311311 -7.1875 15.0625 C-4.2175 15.0625 -1.2475 15.0625 1.8125 15.0625 C2.4725 16.3825 3.1325 17.7025 3.8125 19.0625 C1.8125 21.0625 1.8125 21.0625 -0.3515625 21.2578125 C-1.16367188 21.23460938 -1.97578125 21.21140625 -2.8125 21.1875 C-3.62976563 21.16945313 -4.44703125 21.15140625 -5.2890625 21.1328125 C-5.91554687 21.10960938 -6.54203125 21.08640625 -7.1875 21.0625 C-7.17964478 21.91799438 -7.17964478 21.91799438 -7.17163086 22.79077148 C-7.15091779 25.36050323 -7.1378581 27.93021747 -7.125 30.5 C-7.11662109 31.39783203 -7.10824219 32.29566406 -7.09960938 33.22070312 C-7.09477539 34.50170898 -7.09477539 34.50170898 -7.08984375 35.80859375 C-7.08460693 36.59935303 -7.07937012 37.3901123 -7.07397461 38.20483398 C-7.1875 40.0625 -7.1875 40.0625 -8.1875 41.0625 C-11.1875 41.1875 -11.1875 41.1875 -14.1875 41.0625 C-15.1875 40.0625 -15.1875 40.0625 -15.30102539 38.20483398 C-15.29578857 37.41407471 -15.29055176 36.62331543 -15.28515625 35.80859375 C-15.28193359 34.95458984 -15.27871094 34.10058594 -15.27539062 33.22070312 C-15.26701172 32.32287109 -15.25863281 31.42503906 -15.25 30.5 C-15.24548828 29.59830078 -15.24097656 28.69660156 -15.23632812 27.76757812 C-15.22450225 25.53248686 -15.2080222 23.29752563 -15.1875 21.0625 C-17.1675 21.0625 -19.1475 21.0625 -21.1875 21.0625 C-21.8475 19.7425 -22.5075 18.4225 -23.1875 17.0625 C-21.1875 15.0625 -21.1875 15.0625 -18.0625 14.9375 C-17.11375 14.97875 -16.165 15.02 -15.1875 15.0625 C-15.331875 13.86625 -15.47625 12.67 -15.625 11.4375 C-15.64485769 8.64252972 -15.49025814 7.44420314 -13.734375 5.23046875 C-9.26891916 1.37479154 -5.96410772 -0.07745594 0 0 Z " fill="#FFFFFF" transform="translate(208.1875,11.9375)"/>
<path d="M0 0 C4.92229423 4.4809851 7.66837649 8.91811023 8.21899414 15.69555664 C8.34168424 18.92468827 8.37123381 22.14360856 8.375 25.375 C8.39949219 26.47328125 8.42398438 27.5715625 8.44921875 28.703125 C8.47292823 35.29436122 8.02192671 40.59217482 4 46 C1.73552259 47.95150086 -0.24567505 48.7287731 -3 50 C-3.3125 47.25 -3.3125 47.25 -3 44 C-0.5625 41.8125 -0.5625 41.8125 2 40 C3.65630281 35.03109156 3.26838076 29.89062913 3.3125 24.6875 C3.34150391 23.55892578 3.37050781 22.43035156 3.40039062 21.26757812 C3.44934865 14.86914056 3.38985713 10.8191236 -1 6 C-4.75501301 2.78141742 -8.0837901 2.5869921 -12.84765625 2.78515625 C-15.67385422 3.06726313 -17.61490914 3.40993943 -20 5 C-21.98153159 9.6102884 -22.26918483 13.86057435 -22.1953125 18.8046875 C-22.1924826 19.5286673 -22.18965271 20.25264709 -22.18673706 20.99856567 C-22.17562087 23.2908849 -22.15053312 25.58280063 -22.125 27.875 C-22.1149591 29.43749432 -22.10583519 30.99999482 -22.09765625 32.5625 C-22.07570973 36.37515338 -22.04124013 40.18750848 -22 44 C-22.66 44 -23.32 44 -24 44 C-27.57192293 37.47200292 -27.48288271 31.39386975 -27.4375 24.0625 C-27.45748047 22.92103516 -27.47746094 21.77957031 -27.49804688 20.60351562 C-27.49403153 13.65295549 -26.6898327 8.88101778 -23 3 C-22.5213147 1.94244507 -22.5213147 1.94244507 -22.03295898 0.86352539 C-21 -1 -21 -1 -18.375 -2.25 C-11.40677604 -3.79849421 -6.25468463 -3.59065229 0 0 Z " fill="#B0F29F" transform="translate(41,14)"/>
<path d="M0 0 C2.375 0.75 2.375 0.75 3.375 1.75 C3.4633967 4.1256852 3.49030305 6.47208674 3.47265625 8.84765625 C3.4712413 9.55651474 3.46982635 10.26537323 3.46836853 10.99571228 C3.46275443 13.26801712 3.45019963 15.54022475 3.4375 17.8125 C3.43248681 19.34960796 3.42792359 20.88671745 3.42382812 22.42382812 C3.41278042 26.19925642 3.39550641 29.97461171 3.375 33.75 C5.355 34.41 7.335 35.07 9.375 35.75 C9.41754356 37.74954746 9.41580783 39.75041636 9.375 41.75 C7.80558802 43.31941198 6.23365006 42.9949847 4.0625 43.0625 C0.69329225 43.03036129 -0.32029979 42.97090765 -3.125 40.9375 C-5.89901595 36.89206007 -5.79932899 33.06602256 -5.828125 28.34375 C-5.83382507 27.62264038 -5.83952515 26.90153076 -5.84539795 26.15856934 C-5.8548331 24.63551292 -5.86137603 23.11243622 -5.86523438 21.58935547 C-5.87496481 19.25842944 -5.90601043 16.92837635 -5.9375 14.59765625 C-5.94402804 13.11719273 -5.94927929 11.63672292 -5.953125 10.15625 C-5.9654718 9.4593103 -5.9778186 8.76237061 -5.99053955 8.04431152 C-5.97716139 5.14331557 -5.93500542 3.20217493 -4.26855469 0.77148438 C-2.625 -0.25 -2.625 -0.25 0 0 Z " fill="#FFFFFF" transform="translate(106.625,11.25)"/>
<path d="M0 0 C3.81766163 0.78598916 5.59576388 2.6696927 8.2578125 5.46484375 C10.37162954 9.69247784 9.4872028 15.25743175 9.5078125 19.90234375 C9.5284375 21.06056641 9.5490625 22.21878906 9.5703125 23.41210938 C9.57546875 24.52134766 9.580625 25.63058594 9.5859375 26.7734375 C9.5952832 27.79236084 9.60462891 28.81128418 9.61425781 29.86108398 C9.2578125 32.46484375 9.2578125 32.46484375 7.98730469 34.32055664 C6.2578125 35.46484375 6.2578125 35.46484375 2.2578125 35.46484375 C2.2578125 38.43484375 2.2578125 41.40484375 2.2578125 44.46484375 C1.5978125 44.46484375 0.9378125 44.46484375 0.2578125 44.46484375 C0.2578125 37.53484375 0.2578125 30.60484375 0.2578125 23.46484375 C1.2478125 23.46484375 2.2378125 23.46484375 3.2578125 23.46484375 C3.5878125 25.77484375 3.9178125 28.08484375 4.2578125 30.46484375 C6.562048 28.16060825 5.53808561 22.74397714 5.5703125 19.65234375 C5.59931641 18.73646484 5.62832031 17.82058594 5.65820312 16.87695312 C5.75845457 11.53559307 5.75845457 11.53559307 3.47265625 6.84375 C0.35597812 4.90338425 -2.15250854 5.1887146 -5.7421875 5.46484375 C-8.40991711 10.07979857 -9.14423111 13.52375453 -9.25390625 18.83203125 C-9.27185745 19.51161896 -9.28980865 20.19120667 -9.30830383 20.89138794 C-9.36205567 23.04081194 -9.39618686 25.19001852 -9.4296875 27.33984375 C-9.46289188 28.80601962 -9.4973844 30.27216692 -9.53320312 31.73828125 C-9.61775948 35.31359323 -9.68473756 38.88898167 -9.7421875 42.46484375 C-10.7321875 42.13484375 -11.7221875 41.80484375 -12.7421875 41.46484375 C-12.79177698 36.99912011 -12.8279965 32.53354414 -12.85205078 28.06762695 C-12.86208295 26.54969489 -12.87571188 25.03178202 -12.89306641 23.51391602 C-12.91743785 21.32693735 -12.92869845 19.14021511 -12.9375 16.953125 C-12.94797363 15.63868408 -12.95844727 14.32424316 -12.96923828 12.9699707 C-12.68499039 8.58185565 -11.61881299 5.76224948 -9.1796875 2.15234375 C-6.0174408 -0.03690397 -3.78914254 -0.15631776 0 0 Z " fill="#A3F79C" transform="translate(32.7421875,18.53515625)"/>
<path d="M0 0 C3.0625 0.1875 3.0625 0.1875 5.0625 2.1875 C5.32128906 4.49414062 5.32128906 4.49414062 5.328125 7.34375 C5.33070313 8.36597656 5.33328125 9.38820313 5.3359375 10.44140625 C5.32820312 11.51261719 5.32046875 12.58382812 5.3125 13.6875 C5.32023438 14.75871094 5.32796875 15.82992187 5.3359375 16.93359375 C5.33335937 17.95582031 5.33078125 18.97804688 5.328125 20.03125 C5.32586914 20.97162109 5.32361328 21.91199219 5.32128906 22.88085938 C5.0625 25.1875 5.0625 25.1875 3.0625 27.1875 C0 27.375 0 27.375 -2.9375 27.1875 C-4.68295605 25.44204395 -4.0677316 23.02625783 -4.0703125 20.65625 C-4.07160156 19.53605469 -4.07289063 18.41585937 -4.07421875 17.26171875 C-4.07035156 16.08222656 -4.06648437 14.90273438 -4.0625 13.6875 C-4.06636719 12.50800781 -4.07023438 11.32851563 -4.07421875 10.11328125 C-4.07292969 8.99308594 -4.07164062 7.87289062 -4.0703125 6.71875 C-4.06918457 5.68298828 -4.06805664 4.64722656 -4.06689453 3.58007812 C-3.87567471 0.04431546 -3.5912519 0.22922884 0 0 Z " fill="#FFFFFF" transform="translate(222.9375,25.8125)"/>
<path d="M0 0 C4.58568622 2.24958192 8.05888362 5.21569543 10 10 C10.56176961 14.19742919 10.51296246 18.33416784 10.4375 22.5625 C10.44458984 23.68591797 10.45167969 24.80933594 10.45898438 25.96679688 C10.38671492 35.32291228 10.38671492 35.32291228 7 40 C4.8125 41.3125 4.8125 41.3125 3 42 C3 43.65 3 45.3 3 47 C2.01 47 1.02 47 0 47 C0 44.03 0 41.06 0 38 C0.804375 37.690625 1.60875 37.38125 2.4375 37.0625 C4.89080405 36.23664655 4.89080405 36.23664655 6 35 C6.30972036 30.92450724 6.27848939 26.83580735 6.3125 22.75 C6.35600586 21.03103516 6.35600586 21.03103516 6.40039062 19.27734375 C6.52579168 12.71618196 6.52579168 12.71618196 4.10546875 6.765625 C0.45845124 3.70727265 -2.18763947 3.73595595 -6.80859375 3.765625 C-9.5964315 4.06378947 -10.99974362 5.07975388 -13 7 C-13.66 7 -14.32 7 -15 7 C-14.70488433 4.14721517 -14.18767059 3.16421177 -12 1.25 C-7.89106131 -0.46205779 -4.38983599 -0.69027456 0 0 Z " fill="#104314" transform="translate(35,16)"/>
<path d="M0 0 C4.64016459 0.80002838 5.82277294 1.85861685 8.625 5.625 C9.30241717 9.04095939 9.23398499 12.34231889 9.125 15.8125 C9.12757812 16.72708984 9.13015625 17.64167969 9.1328125 18.58398438 C9.0591575 23.57411065 9.0591575 23.57411065 8.625 25.625 C7.635 26.285 6.645 26.945 5.625 27.625 C5.64071045 26.73977661 5.64071045 26.73977661 5.65673828 25.83666992 C5.69832044 23.16198996 5.7243329 20.48737803 5.75 17.8125 C5.76675781 16.88373047 5.78351562 15.95496094 5.80078125 14.99804688 C5.81044922 13.6590332 5.81044922 13.6590332 5.8203125 12.29296875 C5.83602295 11.05969849 5.83602295 11.05969849 5.85205078 9.80151367 C5.76496135 7.33078408 5.76496135 7.33078408 3.625 4.625 C1.125 4.20833333 1.125 4.20833333 -1.375 4.625 C-3.62695569 6.44309477 -3.62695569 6.44309477 -3.5625 9.0625 C-3.47195513 11.74439103 -3.47195513 11.74439103 -2.375 14.625 C-0.725 14.955 0.925 15.285 2.625 15.625 C0.625 17.625 0.625 17.625 -3 17.75 C-4.11375 17.70875 -5.2275 17.6675 -6.375 17.625 C-6.45660748 15.72989301 -6.51446459 13.83375496 -6.5625 11.9375 C-6.59730469 10.88175781 -6.63210937 9.82601562 -6.66796875 8.73828125 C-6.19765764 3.74044186 -5.09276152 0.94310398 0 0 Z " fill="#0C360F" transform="translate(30.375,22.375)"/>
<path d="M0 0 C-0.50660156 0.68835938 -0.50660156 0.68835938 -1.0234375 1.390625 C-4.36308951 5.98192426 -4.36308951 5.98192426 -7 11 C-7.33 11 -7.66 11 -8 11 C-8.05813173 15.56244637 -8.09364122 20.12479724 -8.125 24.6875 C-8.14175781 25.98107422 -8.15851562 27.27464844 -8.17578125 28.60742188 C-8.18222656 29.85458984 -8.18867188 31.10175781 -8.1953125 32.38671875 C-8.20578613 33.53358154 -8.21625977 34.68044434 -8.22705078 35.86206055 C-8.00058489 38.99191655 -7.33456032 41.18079905 -6 44 C-5.34 44 -4.68 44 -4 44 C-4.33 44.99 -4.66 45.98 -5 47 C-5.81721717 45.89932004 -6.62859451 44.79430269 -7.4375 43.6875 C-7.88996094 43.07261719 -8.34242187 42.45773438 -8.80859375 41.82421875 C-12.25648094 36.54499475 -11.26476197 29.86886457 -11.3125 23.8125 C-11.34150391 22.60529297 -11.37050781 21.39808594 -11.40039062 20.15429688 C-11.45176587 12.92619445 -10.95055974 8.11605175 -7 2 C-3.75 -1.25 -3.75 -1.25 0 0 Z " fill="#19331D" transform="translate(21,15)"/>
<path d="M0 0 C0.66 0 1.32 0 2 0 C2.33 6.93 2.66 13.86 3 21 C3.99 21.33 4.98 21.66 6 22 C6 15.07 6 8.14 6 1 C6.66 1 7.32 1 8 1 C8.02716824 3.54173977 8.04691969 6.08318415 8.0625 8.625 C8.07087891 9.33785156 8.07925781 10.05070312 8.08789062 10.78515625 C8.10710296 14.97344438 7.8267327 18.8728462 7 23 C5.22992286 23.08114106 3.45877902 23.13925505 1.6875 23.1875 C0.70136719 23.22230469 -0.28476562 23.25710937 -1.30078125 23.29296875 C-4 23 -4 23 -5.85546875 21.48828125 C-6.23316406 20.99714844 -6.61085938 20.50601563 -7 20 C-4.69 20 -2.38 20 0 20 C0 13.4 0 6.8 0 0 Z " fill="#08330A" transform="translate(24,42)"/>
<path d="M0 0 C1.875 1.625 1.875 1.625 3 4 C2.77962372 7.67293796 2.63033454 9.36966546 0 12 C-3 11.8125 -3 11.8125 -6 11 C-8.15502531 7.76746204 -8.46856135 6.74849077 -8 3 C-5.86922119 -0.25224135 -3.7535559 -0.65687228 0 0 Z " fill="#98F391" transform="translate(34,26)"/>
<path d="M0 0 C3.9595613 2.05310586 6.70016254 4.18187611 9 8 C9.2487793 10.74902344 9.2487793 10.74902344 9.07421875 13.859375 C9.01943359 14.97441406 8.96464844 16.08945312 8.90820312 17.23828125 C8.83537109 18.39714844 8.76253906 19.55601563 8.6875 20.75 C8.5956543 22.51150391 8.5956543 22.51150391 8.50195312 24.30859375 C8.34879544 27.20680836 8.18095765 30.10341002 8 33 C7.67 33 7.34 33 7 33 C6.9906543 32.3294458 6.98130859 31.6588916 6.97167969 30.96801758 C6.91783404 27.91544433 6.83421505 24.86438018 6.75 21.8125 C6.73582031 20.75740234 6.72164062 19.70230469 6.70703125 18.61523438 C6.54296045 12.41224284 6.54296045 12.41224284 4.078125 6.82421875 C0.48304352 3.66838595 -2.17842487 3.73589679 -6.80859375 3.765625 C-9.5964315 4.06378947 -10.99974362 5.07975388 -13 7 C-13.66 7 -14.32 7 -15 7 C-14.70488433 4.14721517 -14.18767059 3.16421177 -12 1.25 C-7.8979166 -0.45920142 -4.38297994 -0.70344123 0 0 Z " fill="#224C28" transform="translate(35,16)"/>
<path d="M0 0 C0.33 0 0.66 0 1 0 C1.10871967 2.54283234 1.18762401 5.08095088 1.25 7.625 C1.30027344 8.69427734 1.30027344 8.69427734 1.3515625 9.78515625 C1.44707496 14.99058545 0.46664867 17.88954515 -3 22 C-6.25 23.875 -6.25 23.875 -9 25 C-9.3125 22.25 -9.3125 22.25 -9 19 C-8.19304688 18.40960938 -7.38609375 17.81921875 -6.5546875 17.2109375 C-3.2585504 14.35831732 -3.22199657 12.64339951 -2.8125 8.375 C-2.17897372 2.17897372 -2.17897372 2.17897372 0 0 Z " fill="#81E27B" transform="translate(47,39)"/>
<path d="M0 0 C0.33 0 0.66 0 1 0 C1.33 5.61 1.66 11.22 2 17 C2.33 12.38 2.66 7.76 3 3 C3.33 3 3.66 3 4 3 C4.33 12.9 4.66 22.8 5 33 C4.34 33 3.68 33 3 33 C-0.72449488 26.34283199 -0.34676486 20.04794829 -0.1875 12.5625 C-0.16719727 10.74975586 -0.16719727 10.74975586 -0.14648438 8.90039062 C-0.11129946 5.93312918 -0.06206696 2.96680063 0 0 Z " fill="#77D171" transform="translate(14,25)"/>
<path d="M0 0 C0.99 0 1.98 0 3 0 C2.08591071 4.00792997 1.28012235 7.43975531 -0.5625 11.125 C-2.75550267 15.81802572 -2.51459331 20.9958679 -2.69140625 26.0859375 C-2.79324219 27.04757813 -2.89507813 28.00921875 -3 29 C-3.66 29.33 -4.32 29.66 -5 30 C-5.14685185 26.66714074 -5.23457648 23.33512655 -5.3125 20 C-5.35439453 19.06542969 -5.39628906 18.13085938 -5.43945312 17.16796875 C-5.55982381 10.28276578 -4.06195539 6.48066315 0 1 C0 0.67 0 0.34 0 0 Z " fill="#9EFA94" transform="translate(20,13)"/>
<path d="M0 0 C0.99 0 1.98 0 3 0 C3.33 2.31 3.66 4.62 4 7 C4.99 7 5.98 7 7 7 C7.66 7.66 8.32 8.32 9 9 C7.75 10.5 7.75 10.5 6 12 C4.68 12 3.36 12 2 12 C2 14.97 2 17.94 2 21 C1.34 21 0.68 21 0 21 C0 14.07 0 7.14 0 0 Z " fill="#8EFB8D" transform="translate(33,42)"/>
<path d="M0 0 C0.33 0 0.66 0 1 0 C1.33 3.96 1.66 7.92 2 12 C2.33 12 2.66 12 3 12 C3 18.93 3 25.86 3 33 C2.01 32.67 1.02 32.34 0 32 C0 21.44 0 10.88 0 0 Z " fill="#83F282" transform="translate(20,28)"/>
<path d="M0 0 C0.99 0 1.98 0 3 0 C3 6.93 3 13.86 3 21 C2.01 21 1.02 21 0 21 C0 14.07 0 7.14 0 0 Z " fill="#80F178" transform="translate(26,42)"/>
<path d="M0 0 C0.33 0.66 0.66 1.32 1 2 C3.02463255 2.65213292 3.02463255 2.65213292 5 3 C3.7625 3.5878125 3.7625 3.5878125 2.5 4.1875 C1.2625 5.0846875 1.2625 5.0846875 0 6 C-0.47379119 9.15860793 -0.01423522 10.95729435 1 14 C2.65 14.33 4.3 14.66 6 15 C4 17 4 17 0.375 17.125 C-0.73875 17.08375 -1.8525 17.0425 -3 17 C-3.08160748 15.10489301 -3.13946459 13.20875496 -3.1875 11.3125 C-3.22230469 10.25675781 -3.25710937 9.20101562 -3.29296875 8.11328125 C-2.96666615 4.64577232 -1.99030125 2.81567552 0 0 Z " fill="#1E4127" transform="translate(27,23)"/>
<path d="M0 0 C0.66 0 1.32 0 2 0 C3.20029908 2.40059817 3.11459743 3.89360649 3.09765625 6.5703125 C3.09443359 7.46621094 3.09121094 8.36210938 3.08789062 9.28515625 C3.07951172 10.22230469 3.07113281 11.15945312 3.0625 12.125 C3.05798828 13.06988281 3.05347656 14.01476563 3.04882812 14.98828125 C3.03702357 17.32558387 3.02055759 19.66276061 3 22 C2.01 22 1.02 22 0 22 C0 14.74 0 7.48 0 0 Z " fill="#A3F990" transform="translate(39,28)"/>
<path d="M0 0 C6.02339107 0.23621141 6.02339107 0.23621141 8.61328125 2.26171875 C10 3.8125 10 3.8125 12 7 C11.8125 9.375 11.8125 9.375 11 11 C11 10.34 11 9.68 11 9 C10.01 9 9.02 9 8 9 C7.4225 8.360625 6.845 7.72125 6.25 7.0625 C3.29033502 4.34947377 0.92492059 4.30191697 -3 4 C-2.01 2.68 -1.02 1.36 0 0 Z " fill="#ABEE9B" transform="translate(30,19)"/>
<path d="M0 0 C3.125 0.375 3.125 0.375 6 1 C6.33 1.99 6.66 2.98 7 4 C5.8125 5.5625 5.8125 5.5625 4 7 C1.3125 6.6875 1.3125 6.6875 -1 6 C-1.625 4.125 -1.625 4.125 -2 2 C-1.34 1.34 -0.68 0.68 0 0 Z " fill="#FFFFFF" transform="translate(221,15)"/>
<path d="M0 0 C0.33 0 0.66 0 1 0 C1.05382106 2.62527189 1.09358313 5.24944713 1.125 7.875 C1.14175781 8.62136719 1.15851562 9.36773437 1.17578125 10.13671875 C1.1933959 12.09194461 1.10320189 14.04742021 1 16 C0.34 16.66 -0.32 17.32 -1 18 C-2.12178787 14.6346364 -2.16771159 11.9796245 -2.1875 8.4375 C-2.20167969 7.28121094 -2.21585938 6.12492187 -2.23046875 4.93359375 C-2 2 -2 2 0 0 Z " fill="#85F586" transform="translate(47,39)"/>
<path d="M0 0 C0.33 0 0.66 0 1 0 C1 6.27 1 12.54 1 19 C2.65 19 4.3 19 6 19 C3.13700494 21.86299506 1.34147716 21.99421225 -2.6875 22.0625 C-3.780625 22.041875 -4.87375 22.02125 -6 22 C-6 21.67 -6 21.34 -6 21 C-4.35 21 -2.7 21 -1 21 C-0.67 14.07 -0.34 7.14 0 0 Z " fill="#68A864" transform="translate(32,44)"/>
<path d="M0 0 C0.99 0.33 1.98 0.66 3 1 C2.49339844 1.68835938 2.49339844 1.68835938 1.9765625 2.390625 C-1.36308951 6.98192426 -1.36308951 6.98192426 -4 12 C-4.99 11.34 -5.98 10.68 -7 10 C-5.6062718 5.56541027 -3.39417765 3.12621626 0 0 Z " fill="#346F2B" transform="translate(18,14)"/>
<path d="M0 0 C0 2.62113708 -0.31292445 4.50935112 -1 7 C-1.66 7 -2.32 7 -3 7 C-3 8.65 -3 10.3 -3 12 C-3.99 12 -4.98 12 -6 12 C-6 9.03 -6 6.06 -6 3 C-5.195625 2.690625 -4.39125 2.38125 -3.5625 2.0625 C-1.10919595 1.23664655 -1.10919595 1.23664655 0 0 Z " fill="#2A6535" transform="translate(41,51)"/>
<path d="M0 0 C0.33 0 0.66 0 1 0 C1.33 7.26 1.66 14.52 2 22 C-4 22 -4 22 -5.875 20.5 C-6.24625 20.005 -6.6175 19.51 -7 19 C-4.69 19 -2.38 19 0 19 C0 12.73 0 6.46 0 0 Z " fill="#081F0D" transform="translate(24,43)"/>
<path d="M0 0 C2.3125 -0.25 2.3125 -0.25 5 0 C6.875 1.6875 6.875 1.6875 8 4 C7.6875 6.75 7.6875 6.75 7 9 C6.67 8.34 6.34 7.68 6 7 C5.34 7 4.68 7 4 7 C3.67 5.68 3.34 4.36 3 3 C1.35 3.33 -0.3 3.66 -2 4 C-1.34 2.68 -0.68 1.36 0 0 Z " fill="#A6EDA3" transform="translate(29,26)"/>
<path d="M0 0 C3 3 3 3 3.3984375 5.62890625 C3.39070313 6.59699219 3.38296875 7.56507812 3.375 8.5625 C3.38273437 9.53316406 3.39046875 10.50382812 3.3984375 11.50390625 C3.26695313 12.32761719 3.13546875 13.15132812 3 14 C2.01 14.66 1.02 15.32 0 16 C0 10.72 0 5.44 0 0 Z " fill="#124B15" transform="translate(36,34)"/>
<path d="M0 0 C0.66 1.32 1.32 2.64 2 4 C2.99 4 3.98 4 5 4 C5.66 4.66 6.32 5.32 7 6 C5.75 7.5 5.75 7.5 4 9 C2.68 9 1.36 9 0 9 C0 6.03 0 3.06 0 0 Z " fill="#70E271" transform="translate(35,45)"/>
<path d="M0 0 C0.99 0 1.98 0 3 0 C1.14285714 8.71428571 1.14285714 8.71428571 -2 11 C-2.28571429 3.57142857 -2.28571429 3.57142857 0 0 Z " fill="#A5EF95" transform="translate(20,13)"/>
<path d="M0 0 C2.125 0.375 2.125 0.375 4 1 C2.35 2.98 0.7 4.96 -1 7 C-1.99 6.67 -2.98 6.34 -4 6 C-2.84826645 3.53199953 -1.95216435 1.95216435 0 0 Z " fill="#A8F8A9" transform="translate(26,19)"/>
<path d="M0 0 C0.80824219 0.11085938 1.61648437 0.22171875 2.44921875 0.3359375 C3.37154297 0.47902344 3.37154297 0.47902344 4.3125 0.625 C4.3125 0.955 4.3125 1.285 4.3125 1.625 C3.24 1.728125 2.1675 1.83125 1.0625 1.9375 C-2.61125834 2.61102236 -3.93907596 3.28374989 -6.6875 5.625 C-7.3475 5.625 -8.0075 5.625 -8.6875 5.625 C-8.375 3.75 -8.375 3.75 -7.6875 1.625 C-4.33422361 -0.61051759 -3.78006343 -0.54783528 0 0 Z " fill="#478858" transform="translate(28.6875,17.375)"/>
<path d="M0 0 C1.40907283 2.81814566 0.50872691 4.17277204 -0.4375 7.125 C-0.72496094 8.03507812 -1.01242188 8.94515625 -1.30859375 9.8828125 C-1.53675781 10.58148438 -1.76492187 11.28015625 -2 12 C-2.33 12 -2.66 12 -3 12 C-3.08131463 10.56344146 -3.13933559 9.1255517 -3.1875 7.6875 C-3.22230469 6.88699219 -3.25710937 6.08648437 -3.29296875 5.26171875 C-2.93801608 2.52148416 -2.10633718 1.70828921 0 0 Z " fill="#12491E" transform="translate(21,22)"/>
<path d="M0 0 C2 3 2 3 1.875 5.0625 C1 7 1 7 -3 9 C-2.01 6.03 -1.02 3.06 0 0 Z " fill="#67F56E" transform="translate(44,51)"/>
<path d="M0 0 C0.33 0 0.66 0 1 0 C1 2.97 1 5.94 1 9 C0.01 9 -0.98 9 -2 9 C-2.25 3.375 -2.25 3.375 0 0 Z " fill="#8DFB83" transform="translate(41,41)"/>
<path d="M0 0 C5.53846154 -0.36923077 5.53846154 -0.36923077 7.875 1.5 C8.24625 1.995 8.6175 2.49 9 3 C8.34 3.66 7.68 4.32 7 5 C4.69 4.01 2.38 3.02 0 2 C0 1.34 0 0.68 0 0 Z " fill="#092610" transform="translate(28,23)"/>
<path d="M0 0 C0.33 0 0.66 0 1 0 C1 2.31 1 4.62 1 7 C0.01 7.33 -0.98 7.66 -2 8 C-2.125 5.125 -2.125 5.125 -2 2 C-1.34 1.34 -0.68 0.68 0 0 Z " fill="#93FD8F" transform="translate(47,39)"/>
<path d="M0 0 C0.33 0 0.66 0 1 0 C1.66 2.64 2.32 5.28 3 8 C1.35 8 -0.3 8 -2 8 C-2 6.68 -2 5.36 -2 4 C-1.34 4 -0.68 4 0 4 C0 2.68 0 1.36 0 0 Z " fill="#195916" transform="translate(19,54)"/>
<path d="M0 0 C0 1.98 0 3.96 0 6 C-0.99 6 -1.98 6 -3 6 C-3 5.34 -3 4.68 -3 4 C-3.66 3.67 -4.32 3.34 -5 3 C-1.125 0 -1.125 0 0 0 Z " fill="#447955" transform="translate(36,36)"/>
</svg>
